<svg xmlns="http://www.w3.org/2000/svg" width="24" height="24" viewBox="0 0 24 24" fill="currentColor">
    <path d="M22.5 12c0 5.78-4.71 10.49-10.49 10.49-.66 0-1.29-.07-1.9-.18l2.25-2.25c4.78-.62 8.52-4.59 8.52-9.45 0-1.57-.4-3.05-1.09-4.35L22 4.02C22.32 6.54 22.5 9.21 22.5 12zM2.78 2.77L1.51 4.04l2.12 2.12C2.12 8.01 1.26 10.27 1.26 12.75c0 6.06 4.93 10.99 10.99 10.99 2.48 0 4.74-.86 6.59-2.37l2.12 2.12 1.27-1.27L2.78 2.77zM12.25 21.74c-4.96 0-9-4.04-9-9 0-1.95.63-3.76 1.69-5.25l3.8 3.8c-.01.15-.06.29-.06.45 0 .69.56 1.25 1.25 1.25.16 0 .31-.05.45-.06l2.32 2.32c-.15 1.83-1.01 3.47-2.33 4.67 2.05-.18 3.91-1 5.39-2.29l1.79 1.8c-1.46 1.4-3.32 2.31-5.3 2.31zM9.54 6.72l1.64 1.64c.32-.08.66-.13 1.01-.13 2.36 0 4.28 1.92 4.28 4.28 0 .35-.05.69-.13 1.01l3.58 3.58C20.59 15.68 20.97 14.28 20.97 12.75c0-4.04-2.73-7.44-6.42-8.58-1.55-.48-3.23-.48-4.77 0-.08.85.2 1.76.67 2.55h-.91z"/>
</svg>