<svg xmlns="http://www.w3.org/2000/svg" width="24" height="24" viewBox="0 0 24 24" fill="currentColor">
    <path d="M12 2C6.48 2 2 6.48 2 12s4.48 10 10 10 10-4.48 10-10S17.52 2 12 2zm0 18c-4.41 0-8-3.59-8-8 0-.29.02-.58.05-.86 2.36-1.05 4.23-2.98 5.21-5.37C11.07 8.33 14.05 10 17.42 10c.78 0 1.53-.09 2.25-.26.21.71.33 1.47.33 2.26 0 4.41-3.59 8-8 8z"/>
    <path d="M2.81 2.81L1.39 4.22 19.78 22.61l1.41-1.41L2.81 2.81zM12 4c4.41 0 8 3.59 8 8 0 1.46-.41 2.82-1.12 4L13 10.17V7h-3.17L7.6 4.77C8.94 4.28 10.42 4 12 4z"/>
</svg>