<svg width="24" height="24" viewBox="0 0 24 24" fill="none" xmlns="http://www.w3.org/2000/svg">
    <path d="M19.14 12.94C19.16 12.78 19.16 12.63 19.16 12.48C19.16 12.32 19.16 12.17 19.14 12.02L21.41 10.25C21.62 10.09 21.68 9.8 21.54 9.57L19.38 5.83C19.24 5.6 18.96 5.51 18.72 5.6L16.05 6.68C15.5 6.25 14.9 5.9 14.25 5.63L13.84 2.8C13.8 2.53 13.57 2.34 13.3 2.34H8.98C8.71 2.34 8.48 2.54 8.44 2.8L8.03 5.63C7.38 5.9 6.78 6.25 6.23 6.68L3.56 5.6C3.32 5.51 3.04 5.6 2.9 5.83L0.74 9.57C0.6 9.8 0.66 10.09 0.87 10.25L3.14 12.02C3.12 12.17 3.12 12.32 3.12 12.48C3.12 12.63 3.12 12.79 3.14 12.94L0.87 14.71C0.66 14.87 0.6 15.16 0.74 15.39L2.9 19.13C3.04 19.36 3.32 19.45 3.56 19.36L6.23 18.28C6.78 18.71 7.38 19.06 8.03 19.33L8.44 22.16C8.48 22.42 8.71 22.62 8.98 22.62H13.3C13.57 22.62 13.8 22.42 13.84 22.16L14.25 19.33C14.9 19.06 15.5 18.71 16.05 18.28L18.72 19.36C18.96 19.45 19.24 19.36 19.38 19.13L21.54 15.39C21.68 15.16 21.62 14.87 21.41 14.71L19.14 12.94ZM11.14 12.48C11.14 14.52 9.49 16.17 7.45 16.17C5.41 16.17 3.76 14.52 3.76 12.48C3.76 10.44 5.41 8.79 7.45 8.79C9.49 8.79 11.14 10.44 11.14 12.48Z" transform="translate(3.69 0)" fill="#000000"/>
</svg>